<svg t="1720080087401" class="icon" viewBox="0 0 1024 1024" version="1.1" xmlns="http://www.w3.org/2000/svg" p-id="6332"
	width="200" height="200">
	<path
		d="M209.152 757.248l46.8992 46.9504-155.8528 155.904-46.9504-46.8992 155.904-155.904zM542.0032 102.4C751.3088 102.4 921.6 272.6912 921.6 481.9968c0 209.3056-170.2912 379.5456-379.5968 379.5456-209.2544 0-379.5456-170.24-379.5456-379.5456S332.7488 102.4 542.0032 102.4zM228.864 481.9968a313.5488 313.5488 0 0 0 313.1904 313.2416 313.6 313.6 0 0 0 313.2416-313.2416 313.6 313.6 0 0 0-313.2416-313.2416A313.5488 313.5488 0 0 0 228.864 481.9968z"
		fill="#2C2E33" fill-opacity=".3" p-id="6333"></path>
</svg>