  <svg t="1710983282172" class="icon" viewBox="0 0 1024 1024" version="1.1" xmlns="http://www.w3.org/2000/svg" p-id="1247" id="mx_n_1710983282173" width="36" height="36">
    <path
      d="M796.444444 477.866667c19.114667 0 31.857778 12.743111 31.857778 31.857777 0 165.660444-127.431111 299.463111-286.72 315.392v66.901334h159.288889c19.114667 0 31.857778 12.743111 31.857778 31.857778s-12.743111 31.857778-31.857778 31.857777H318.577778c-19.114667 0-31.857778-12.743111-31.857778-31.857777s12.743111-31.857778 31.857778-31.857778h159.288889v-66.901334c-159.288889-15.928889-286.72-149.731556-286.72-315.392 0-19.114667 12.743111-31.857778 31.857777-31.857777s31.857778 12.743111 31.857778 31.857777c0 140.174222 114.688 254.862222 254.862222 254.862223 140.174222 0 254.862222-114.688 254.862223-254.862223 0-19.114667 12.743111-31.857778 31.857777-31.857777zM509.724444 63.715556a191.715556 191.715556 0 0 1 191.146667 191.146666v254.862222a191.715556 191.715556 0 0 1-191.146667 191.146667 191.715556 191.715556 0 0 1-191.146666-191.146667V254.862222a191.715556 191.715556 0 0 1 191.146666-191.146666z"
      p-id="1248"></path>
  </svg>